<?xml version="1.0" encoding="UTF-8"?>
<svg width="1200pt" height="1200pt" version="1.1" viewBox="0 0 1200 1200" xmlns="http://www.w3.org/2000/svg">
 <path d="m600 26.844c-6.6289 0-12.988 2.6328-17.676 7.3203-4.6914 4.6914-7.3242 11.047-7.3242 17.68v420.9c0 6.6289 2.6328 12.988 7.3242 17.676 4.6875 4.6875 11.047 7.3242 17.676 7.3242h287.02l-287.33 364.46-286.25-352.05h138.59c8.9297 0 17.184-4.7656 21.648-12.5 4.4688-7.7344 4.4688-17.266 0-25-4.4648-7.7344-12.719-12.5-21.648-12.5h-191.14c-6.3359 0-12.434 2.4062-17.062 6.7305-4.6289 4.3203-7.4453 10.242-7.8789 16.559-0.43359 6.3203 1.5469 12.566 5.543 17.484l339.11 417.04c4.9922 5.625 12.066 8.9609 19.582 9.2266 7.5898-0.054687 14.746-3.5547 19.445-9.5195l338.56-429.46c3.8984-4.9375 5.7891-11.164 5.2969-17.438-0.49219-6.2734-3.332-12.129-7.9531-16.398-4.6211-4.2734-10.68-6.6445-16.973-6.6406h-313.56v-370.3c129.41 6.418 251.63 61.461 342.2 154.12 90.574 92.652 142.82 216.09 146.3 345.61 3.4766 129.52-42.074 255.59-127.54 352.97-85.469 97.383-204.55 158.91-333.43 172.26-128.88 13.359-258.05-22.438-361.68-100.22-103.62-77.785-174.06-191.83-197.21-319.31s2.6719-259.01 72.32-368.27c69.648-109.26 177.98-188.2 303.32-221.02 6.418-1.6758 11.91-5.832 15.258-11.559 3.3516-5.7227 4.2891-12.547 2.6094-18.961-1.6797-6.418-5.8438-11.902-11.57-15.25-5.7266-3.3477-12.551-4.2812-18.965-2.5938-138.94 36.32-258.84 124.17-335.33 245.71s-103.85 267.63-76.512 408.61c27.34 140.98 107.33 266.26 223.71 350.39 116.38 84.125 260.43 120.79 402.87 102.54 142.44-18.25 272.59-90.047 364-200.8 91.41-110.75 137.23-252.16 128.14-395.47-9.0859-143.32-72.391-277.8-177.06-376.12-104.67-98.324-242.84-153.11-386.45-153.23z"/>
</svg>
